<svg width="32" height="32" viewBox="0 0 32 32" fill="none" xmlns="http://www.w3.org/2000/svg">
<path fill-rule="evenodd" clip-rule="evenodd" d="M27.2172 27.4094C27.7391 26.2359 28 24.9304 28 23.493C28 21.0289 27.3333 19.0166 26 17.456C24.6667 15.8954 22.4762 14.4252 19.4286 13.0453L17.2381 12.0596C15.5873 11.2711 14.3333 10.3758 13.4762 9.37379C12.619 8.37173 12.1905 7.03291 12.1905 5.35734C12.1905 3.71462 12.746 2.40866 13.8571 1.43945C14.7621 0.650099 15.8355 0.182184 17.0773 0.0357056C25.4115 0.589788 32 7.52549 32 16C32 20.4672 30.1693 24.5067 27.2172 27.4094ZM9.97464 1.17333C9.10414 1.78943 8.37449 2.52701 7.78571 3.38607C6.81746 4.79881 6.33333 6.47439 6.33333 8.4128C6.33333 11.1069 7.10317 13.267 8.64286 14.8933C10.1825 16.5196 12.3175 17.957 15.0476 19.2055L17 20.0925C18.6825 20.9468 19.9048 21.8256 20.6667 22.7291C21.4286 23.6326 21.8095 24.8893 21.8095 26.4991C21.8095 28.2076 21.246 29.6039 20.119 30.6881C19.6059 31.1817 19.0089 31.563 18.3279 31.8319C17.568 31.9427 16.7907 32 16 32C7.16344 32 0 24.8366 0 16C0 9.29494 4.12442 3.55318 9.97464 1.17333Z" fill="black"/>
</svg>
